<svg width="512" height="512" viewBox="0 0 512 512" fill="none" xmlns="http://www.w3.org/2000/svg">
<rect width="512" height="512" fill="#FAFAFA"/>
<path d="M355.071 120C354.047 130.24 353.28 140.224 352.768 149.952C352.512 159.68 352.384 167.104 352.384 172.224C352.384 178.112 352.512 183.744 352.768 189.12C353.024 194.496 353.279 199.104 353.535 202.944H344.703C342.399 184.256 339.2 169.664 335.104 159.168C331.264 148.416 325.375 140.736 317.439 136.128C309.503 131.264 298.112 128.832 283.264 128.832H262.911C254.719 128.832 248.448 129.6 244.096 131.136C240 132.416 237.183 135.232 235.647 139.584C234.111 143.68 233.344 150.208 233.344 159.168V254.4H256.768C264.96 254.4 271.36 252.736 275.968 249.408C280.832 246.08 284.544 241.728 287.104 236.353C289.664 230.977 291.455 225.472 292.479 219.84C293.759 213.952 294.784 208.576 295.552 203.712H304.384C303.36 218.304 302.848 229.44 302.848 237.12C303.072 243.84 303.198 250.07 303.226 255.811L303.237 260.67C303.265 266.41 303.391 272.64 303.615 279.36C303.871 287.04 304.511 298.176 305.535 312.768H296.703C295.679 304.32 294.144 296.256 292.096 288.576C290.048 280.64 286.336 274.24 280.96 269.376C275.752 264.664 268.021 262.234 257.768 262.087L256.768 262.08H233.344V350.4C233.344 359.872 234.367 367.04 236.415 371.904C238.463 376.512 242.304 379.584 247.936 381.12C253.568 382.656 261.888 383.552 272.896 383.808V391.872C265.984 391.36 257.024 391.104 246.016 391.104C235.008 390.848 223.616 390.72 211.84 390.72C201.6 390.72 191.743 390.848 182.271 391.104C173.056 391.104 165.248 391.36 158.848 391.872V384.192C167.552 383.68 174.08 382.656 178.432 381.12C182.784 379.584 185.6 376.512 186.88 371.904C188.416 367.296 189.184 360.384 189.184 351.168V160.704C189.184 151.232 188.416 144.32 186.88 139.968C185.6 135.36 182.656 132.288 178.048 130.752C173.696 128.96 167.296 127.936 158.848 127.68V120C168.832 120.256 179.199 120.512 189.951 120.768C200.959 120.768 211.712 120.896 222.208 121.152H314.752C329.856 120.896 343.295 120.512 355.071 120Z" fill="#09090B"/>
<style>
@media (prefers-color-scheme: dark) {
  rect {
    fill: #09090B;
  }
  path {
    fill: #FAFAFA;
  }
}
</style>
</svg>
